<?xml version="1.0" encoding="iso-8859-1"?>
<!-- Uploaded to: SVG Repo, www.svgrepo.com, Generator: SVG Repo Mixer Tools -->
<!DOCTYPE svg PUBLIC "-//W3C//DTD SVG 1.1//EN" "http://www.w3.org/Graphics/SVG/1.1/DTD/svg11.dtd">
<svg fill="#000000" version="1.1" id="Capa_1" xmlns="http://www.w3.org/2000/svg" xmlns:xlink="http://www.w3.org/1999/xlink" 
	 width="48px" height="48px" viewBox="0 0 27 27" xml:space="preserve">
<g>
	<path d="M13.5,0C6.056,0,0,6.056,0,13.5C0,20.943,6.055,27,13.5,27C20.945,27,27,20.943,27,13.5C27,6.056,20.943,0,13.5,0z
		 M24.949,12.5h-3.23c-0.105-2.387-0.582-4.583-1.351-6.434c0.396-0.242,0.778-0.51,1.149-0.794
		C23.438,7.144,24.703,9.676,24.949,12.5z M13.5,25c-0.052,0-0.102-0.007-0.152-0.008c-0.369-0.604-0.816-2.114-1.144-4.411
		c0.428-0.048,0.86-0.081,1.296-0.081s0.867,0.033,1.296,0.081c-0.327,2.297-0.774,3.808-1.144,4.411
		C13.601,24.993,13.551,25,13.5,25z M13.5,19c-0.497,0-0.99,0.038-1.48,0.093c-0.138-1.335-0.232-2.875-0.26-4.593h3.48
		c-0.027,1.719-0.122,3.258-0.26,4.593C14.49,19.038,13.997,19,13.5,19z M11.759,12.5c0.027-1.719,0.122-3.258,0.26-4.593
		C12.509,7.962,13.002,8,13.499,8s0.989-0.038,1.479-0.093c0.139,1.335,0.232,2.875,0.26,4.593H11.759z M13.5,6.5
		c-0.436,0-0.867-0.033-1.296-0.081c0.327-2.297,0.774-3.808,1.144-4.411C13.398,2.007,13.448,2,13.5,2s0.102,0.007,0.152,0.008
		c0.37,0.604,0.816,2.114,1.144,4.411C14.367,6.467,13.935,6.5,13.5,6.5z M15.374,2.22c1.165,0.588,2.199,1.707,3.013,3.198
		c-0.678,0.313-1.381,0.565-2.104,0.744C16.078,4.703,15.788,3.296,15.374,2.22z M18.832,3.32c0.529,0.279,1.031,0.603,1.51,0.958
		c-0.207,0.149-0.416,0.295-0.632,0.431C19.438,4.213,19.146,3.745,18.832,3.32z M8.167,3.32C7.852,3.744,7.561,4.212,7.289,4.709
		C7.073,4.574,6.864,4.428,6.657,4.278C7.135,3.923,7.637,3.599,8.167,3.32z M11.618,2.243c-0.41,1.073-0.698,2.47-0.899,3.919
		c-0.711-0.175-1.402-0.422-2.07-0.727C9.459,3.96,10.479,2.841,11.618,2.243z M10.542,7.649c-0.193,1.904-0.259,3.729-0.281,4.851
		h-3.48c0.107-2.098,0.547-4.055,1.225-5.712C8.819,7.162,9.668,7.448,10.542,7.649z M10.26,14.5
		c0.022,1.122,0.088,2.945,0.281,4.852c-0.873,0.201-1.723,0.487-2.537,0.86c-0.678-1.657-1.117-3.614-1.225-5.712H10.26z
		 M10.718,20.838c0.201,1.449,0.489,2.846,0.899,3.919c-1.139-0.598-2.158-1.718-2.97-3.192
		C9.316,21.26,10.007,21.014,10.718,20.838z M8.167,23.68c-0.53-0.279-1.032-0.603-1.51-0.957c0.207-0.149,0.416-0.297,0.632-0.432
		C7.561,22.788,7.852,23.255,8.167,23.68z M18.832,23.68c0.314-0.424,0.605-0.893,0.878-1.389c0.216,0.135,0.425,0.282,0.632,0.432
		C19.863,23.077,19.361,23.4,18.832,23.68z M15.374,24.78c0.414-1.076,0.704-2.483,0.907-3.942c0.725,0.178,1.428,0.432,2.105,0.744
		C17.573,23.073,16.539,24.191,15.374,24.78z M16.458,19.352c0.192-1.904,0.259-3.729,0.28-4.852h3.482
		c-0.104,2.118-0.529,4.075-1.195,5.725C18.203,19.845,17.342,19.555,16.458,19.352z M16.738,12.5
		c-0.021-1.122-0.088-2.946-0.28-4.851c0.885-0.204,1.745-0.494,2.567-0.875c0.666,1.65,1.092,3.607,1.195,5.725L16.738,12.5
		L16.738,12.5z M5.482,5.271c0.372,0.284,0.753,0.552,1.149,0.794C5.862,7.916,5.386,10.112,5.279,12.5H2.05
		C2.295,9.676,3.562,7.143,5.482,5.271z M2.05,14.5h3.229c0.106,2.387,0.583,4.584,1.352,6.436c-0.396,0.241-0.777,0.51-1.149,0.793
		C3.562,19.857,2.295,17.324,2.05,14.5z M21.518,21.729c-0.371-0.285-0.752-0.553-1.149-0.795c0.769-1.851,1.245-4.047,1.351-6.434
		h3.23C24.703,17.324,23.438,19.855,21.518,21.729z"/>
</g>
</svg>